<?xml version="1.0" encoding="iso-8859-1"?>
<!-- Uploaded to: SVG Repo, www.svgrepo.com, Generator: SVG Repo Mixer Tools -->
<svg fill="#000000" height="800px" width="800px" version="1.1" id="Layer_1" xmlns="http://www.w3.org/2000/svg" xmlns:xlink="http://www.w3.org/1999/xlink" 
	 viewBox="0 0 512 512" xml:space="preserve">
<g>
	<g>
		<path fill="#ed254d" d="M363.929,0l-12.346,12.346L340.036,0.799l-21.458,21.458l11.547,11.547L107.782,256.147L96.235,244.6l-21.458,21.458
			l11.863,11.863c-17.171,21.661-18.478,51.842-3.925,74.805L399.683,35.755L363.929,0z"/>
	</g>
</g>
<g>
	<g>
		<path fill="#5E17EB" d="M304.934,330.282c27.516-27.516,29.126-71.268,4.845-100.695l129.522-129.523l-30.506-30.506L115.402,362.954
			l30.506,30.506l16.191-16.191L259.625,512l84.679-84.679l-57.279-79.13L304.934,330.282z M269.003,323.296l-18.666-25.788
			l-3.561-4.919l5.696-5.696l15.814,15.814l21.458-21.458l-15.814-15.814l14.228-14.228c12.546,17.432,10.985,41.949-4.683,57.617
			L269.003,323.296z"/>
	</g>
</g>
</svg>