<?xml version="1.0" encoding="iso-8859-1"?>
<!-- Uploaded to: SVG Repo, www.svgrepo.com, Generator: SVG Repo Mixer Tools -->
<svg fill="#fff" height="800px" width="800px" version="1.1" id="Layer_1" xmlns="http://www.w3.org/2000/svg" xmlns:xlink="http://www.w3.org/1999/xlink" 
	 viewBox="0 0 511.541 511.541" xml:space="preserve">
<g>
	<g>
		<g>
			<path d="M260.353,322.627c-1.399,0.887-2.987,1.34-4.582,1.34c-1.579,0-3.157-0.444-4.54-1.314l-83.703-52.608
				c-1.212-0.444-2.304-1.101-3.183-2.005l-53.641-33.715v31.138l145.075,91.102l145.058-90.667v-32.666l-52.838,33.63
				C346.719,268.696,260.353,322.627,260.353,322.627z"/>
			<polygon points="161.904,223.894 110.704,191.749 110.704,214.166 161.904,246.354 			"/>
			<path d="M332.569,256.44v-21.615l-72.277,45.175c-1.382,0.862-2.953,1.297-4.523,1.297s-3.149-0.435-4.54-1.306l-72.26-45.38
				v22.468l76.774,48.256L332.569,256.44z"/>
			<path d="M260.353,228.762c-1.399,0.888-2.987,1.331-4.582,1.331c-1.579,0-3.157-0.435-4.54-1.306l-83.703-52.617
				c-1.212-0.444-2.304-1.092-3.183-1.997l-53.641-33.715v31.138l145.075,91.093l145.058-90.658v-32.666l-52.838,33.621
				C346.719,174.832,260.353,228.762,260.353,228.762z"/>
			<path d="M332.567,162.58v-21.623l-72.277,45.175c-1.382,0.862-2.953,1.297-4.523,1.297s-3.149-0.435-4.531-1.306l-72.269-45.372
				v22.46l76.774,48.256L332.567,162.58z"/>
			<polygon points="349.637,245.581 400.837,213.001 400.837,192.162 349.637,224.162 			"/>
			<path d="M260.353,134.896c-1.399,0.887-2.987,1.331-4.582,1.331c-1.579,0-3.157-0.435-4.54-1.306l-83.703-52.617
				c-1.212-0.444-2.304-1.092-3.183-1.997l-53.641-33.715v31.138l145.075,91.093l145.058-90.658V45.501l-52.838,33.621
				C346.719,80.965,260.353,134.896,260.353,134.896z"/>
			<polygon points="332.57,68.711 332.57,0.001 178.97,0.001 178.97,69.343 255.745,117.599 			"/>
			<path d="M392.304,0h-42.667v57.847l51.2-32.58V8.533C400.837,3.823,397.014,0,392.304,0z"/>
			<path d="M255.77,375.161c-1.579,0-3.149-0.435-4.54-1.306l-72.26-45.372v140.791l48.375,33.442
				c8.508,5.888,18.466,8.823,28.425,8.823c9.958,0,19.917-2.944,28.424-8.815l48.375-33.459V328.689l-72.277,45.175
				C258.911,374.726,257.341,375.161,255.77,375.161z M298.437,434.792c0,23.526-19.14,42.667-42.667,42.667
				c-23.526,0-42.667-19.14-42.667-42.667c0-23.526,19.14-42.667,42.667-42.667C279.297,392.125,298.437,411.266,298.437,434.792z"
				/>
			<path d="M230.17,434.792c0,14.114,11.486,25.6,25.6,25.6s25.6-11.486,25.6-25.6s-11.486-25.6-25.6-25.6
				S230.17,420.678,230.17,434.792z"/>
			<path d="M349.637,457.469l39.168-27.085c7.535-4.71,12.032-12.826,12.032-21.709v-122.65l-51.2,32V457.469z"/>
			<path d="M110.704,408.678c0,8.883,4.497,16.998,11.699,21.487l39.501,27.307V317.764l-51.2-32.145V408.678z"/>
			<path d="M161.904,0.001h-42.667c-4.71,0-8.533,3.823-8.533,8.533v17.903l51.2,32.179V0.001z"/>
			<polygon points="161.904,130.032 110.704,97.878 110.704,120.304 161.904,152.483 			"/>
			<polygon points="349.637,151.714 400.837,119.134 400.837,98.295 349.637,130.295 			"/>
		</g>
	</g>
</g>
</svg>