<?xml version="1.0" encoding="iso-8859-1"?>
<!-- Uploaded to: SVG Repo, www.svgrepo.com, Generator: SVG Repo Mixer Tools -->
<svg fill="#fff" height="800px" width="800px" version="1.1" id="Layer_1" xmlns="http://www.w3.org/2000/svg" xmlns:xlink="http://www.w3.org/1999/xlink" 
	 viewBox="0 0 511.541 511.541" xml:space="preserve">
<g>
	<g>
		<g>
			<path d="M392.304,0h-42.667v151.714l51.2-32.58V8.533C400.837,3.823,397.014,0,392.304,0z"/>
			<path d="M332.704,162.486c-0.017-0.222-0.137-0.418-0.137-0.657V0.003h-153.6v161.826c0,0.435-0.179,0.811-0.247,1.229
				l77.022,48.41L332.704,162.486z"/>
			<path d="M161.904,0.001h-42.667c-4.71,0-8.533,3.823-8.533,8.533v111.77l51.2,32.179V0.001z"/>
			<path d="M255.77,230.1c-1.579,0-3.157-0.444-4.54-1.314l-140.527-88.329v31.138l145.075,91.102l145.058-90.667v-32.666
				L260.353,228.76C258.953,229.647,257.366,230.1,255.77,230.1z"/>
			<path d="M349.637,457.469l39.168-27.085c7.535-4.71,12.032-12.826,12.032-21.709V192.16l-51.2,32V457.469z"/>
			<path d="M255.77,281.295c-1.579,0-3.149-0.435-4.54-1.306l-72.26-45.372v234.658l48.375,33.442
				c8.508,5.888,18.466,8.823,28.425,8.823c9.958,0,19.917-2.944,28.424-8.815l48.375-33.459V234.822l-72.277,45.175
				C258.911,280.859,257.341,281.295,255.77,281.295z M298.437,434.792c0,23.526-19.14,42.667-42.667,42.667
				c-23.526,0-42.667-19.14-42.667-42.667c0-23.526,19.14-42.667,42.667-42.667C279.297,392.125,298.437,411.266,298.437,434.792z"
				/>
			<path d="M230.17,434.792c0,14.114,11.486,25.6,25.6,25.6s25.6-11.486,25.6-25.6s-11.486-25.6-25.6-25.6
				S230.17,420.678,230.17,434.792z"/>
			<path d="M110.704,408.678c0,8.883,4.497,16.998,11.699,21.487l39.501,27.307V223.898l-51.2-32.145V408.678z"/>
		</g>
	</g>
</g>
</svg>