<?xml version="1.0" encoding="iso-8859-1"?>
<!-- Uploaded to: SVG Repo, www.svgrepo.com, Generator: SVG Repo Mixer Tools -->
<svg fill="#fff" height="800px" width="800px" version="1.1" id="Layer_1" xmlns="http://www.w3.org/2000/svg" xmlns:xlink="http://www.w3.org/1999/xlink" 
	 viewBox="0 0 511.541 511.541" xml:space="preserve">
<g>
	<g>
		<g>
			<polygon points="161.904,172.698 110.704,140.545 110.704,171.504 161.904,203.683 			"/>
			<polygon points="349.637,202.914 400.837,170.334 400.837,140.962 349.637,172.962 			"/>
			<path d="M260.29,228.798c-1.382,0.862-2.953,1.297-4.523,1.297s-3.149-0.435-4.531-1.306l-72.269-45.372v29.611
				c0,0.435-0.179,0.811-0.247,1.229l77.022,48.41l76.962-48.981c-0.017-0.222-0.137-0.418-0.137-0.657v-29.406L260.29,228.798z"/>
			<path d="M255.77,281.3c-1.579,0-3.157-0.444-4.54-1.314l-140.527-88.329v31.138l145.075,91.102l145.058-90.667v-32.666
				L260.353,279.96C258.953,280.847,257.366,281.3,255.77,281.3z"/>
			<path d="M255.77,178.894c-1.579,0-3.157-0.435-4.54-1.306L110.704,89.26v31.138l145.075,91.093l145.058-90.658V88.167
				l-140.484,89.395C258.953,178.45,257.366,178.894,255.77,178.894z"/>
			<path d="M332.704,111.286c-0.017-0.222-0.137-0.418-0.137-0.657V0.003h-153.6v110.626c0,0.435-0.179,0.811-0.247,1.229
				l77.022,48.41L332.704,111.286z"/>
			<path d="M161.904,0.001h-42.667c-4.71,0-8.533,3.823-8.533,8.533v60.57l51.2,32.179V0.001z"/>
			<path d="M255.77,332.495c-1.579,0-3.149-0.435-4.54-1.306l-72.26-45.372v183.458l48.375,33.442
				c8.508,5.888,18.466,8.823,28.425,8.823c9.958,0,19.917-2.944,28.424-8.815l48.375-33.459V286.022l-72.277,45.175
				C258.911,332.059,257.341,332.495,255.77,332.495z M298.437,434.792c0,23.526-19.14,42.667-42.667,42.667
				c-23.526,0-42.667-19.14-42.667-42.667c0-23.526,19.14-42.667,42.667-42.667C279.297,392.125,298.437,411.266,298.437,434.792z"
				/>
			<path d="M349.637,457.469l39.168-27.085c7.535-4.71,12.032-12.826,12.032-21.709V243.36l-51.2,32V457.469z"/>
			<path d="M230.17,434.792c0,14.114,11.486,25.6,25.6,25.6s25.6-11.486,25.6-25.6s-11.486-25.6-25.6-25.6
				S230.17,420.678,230.17,434.792z"/>
			<path d="M110.704,408.678c0,8.883,4.497,16.998,11.699,21.487l39.501,27.307V275.098l-51.2-32.145V408.678z"/>
			<path d="M392.304,0h-42.667v100.514l51.2-32.58V8.533C400.837,3.823,397.014,0,392.304,0z"/>
		</g>
	</g>
</g>
</svg>