<?xml version="1.0" encoding="iso-8859-1"?>
<!-- Uploaded to: SVG Repo, www.svgrepo.com, Generator: SVG Repo Mixer Tools -->
<svg fill="#fff" height="800px" width="800px" version="1.1" id="Layer_1" xmlns="http://www.w3.org/2000/svg" xmlns:xlink="http://www.w3.org/1999/xlink" 
	 viewBox="0 0 512.001 512.001" xml:space="preserve">
<g>
	<g>
		<g>
			<path d="M93.867,328.968V63.999H76.8v264.969C33.741,333.26,0,369.697,0,413.866c0,47.053,38.281,85.333,85.333,85.333
				c47.053,0,85.333-38.281,85.333-85.333C170.667,369.697,136.926,333.26,93.867,328.968z M85.333,371.199
				c-23.526,0-42.667,19.14-42.667,42.667c0,4.719-3.823,8.533-8.533,8.533c-4.71,0-8.533-3.814-8.533-8.533
				c0-32.93,26.795-59.733,59.733-59.733c4.71,0,8.533,3.814,8.533,8.533C93.867,367.385,90.044,371.199,85.333,371.199z"/>
			<path d="M308.576,413.798l22.255-38.315c1.536-2.637,1.536-5.897,0.017-8.542c-1.527-2.645-4.344-4.275-7.398-4.275h-37.632
				l-21.282-27.793V12.8h-17.067v322.074l-21.282,27.793H188.81c-3.046,0-5.854,1.621-7.381,4.258
				c-1.527,2.628-1.536,5.879-0.017,8.525l22.025,38.323l-23.023,38.366c-1.579,2.645-1.621,5.922-0.102,8.602
				c1.51,2.671,4.344,4.326,7.424,4.326h38.409l23.177,30.729c1.613,2.142,4.13,3.405,6.81,3.405h0.026
				c2.688-0.009,5.214-1.28,6.818-3.439l22.904-30.694h38.391c3.072,0,5.914-1.656,7.424-4.326c1.519-2.68,1.476-5.956-0.111-8.602
				L308.576,413.798z"/>
			<path d="M230.4,323.532V12.799h-42.667c-4.71,0-8.533,3.814-8.533,8.533v247.467c0,2.27,0.896,4.429,2.5,6.033L230.4,323.532z"/>
			<path d="M332.801,268.799V21.332c0-4.719-3.823-8.533-8.533-8.533h-42.667v310.733l48.7-48.7
				C331.905,273.236,332.801,271.069,332.801,268.799z"/>
			<path d="M59.733,323.532V63.999H17.067c-4.71,0-8.533,3.814-8.533,8.533v196.267c0,2.27,0.896,4.429,2.5,6.033L59.733,323.532z"
				/>
			<path d="M162.133,268.799V72.532c0-4.719-3.823-8.533-8.533-8.533h-42.667v259.533l48.7-48.7
				C161.237,273.236,162.133,271.069,162.133,268.799z"/>
			<path d="M508.46,374.939c-2.236-1.604-5.103-2.048-7.689-1.169l-49.527,16.512c-0.324-0.341-0.657-0.666-0.99-0.99l16.503-49.527
				c0.879-2.603,0.435-5.47-1.161-7.689c-1.613-2.227-4.19-3.541-6.929-3.541h-23.467V64.002h-17.067v264.533h-23.467
				c-2.739,0-5.316,1.314-6.921,3.541c-1.604,2.219-2.039,5.086-1.178,7.689l16.512,49.527c-0.333,0.324-0.666,0.649-0.99,0.99
				l-49.527-16.512c-2.611-0.879-5.461-0.435-7.689,1.169c-2.227,1.613-3.541,4.181-3.541,6.929v64c0,2.739,1.314,5.316,3.541,6.921
				c1.476,1.058,3.226,1.613,4.992,1.613c0.904,0,1.818-0.145,2.697-0.444l49.527-16.503c0.324,0.333,0.657,0.657,0.99,0.981
				l-16.512,49.527c-0.862,2.603-0.427,5.47,1.178,7.697c1.604,2.219,4.181,3.541,6.921,3.541h64c2.739,0,5.316-1.323,6.929-3.541
				c1.596-2.227,2.039-5.094,1.161-7.697l-16.503-49.527c0.333-0.324,0.666-0.649,0.99-0.981l49.527,16.503
				c0.879,0.299,1.792,0.444,2.697,0.444c1.766,0,3.516-0.555,4.992-1.613c2.227-1.604,3.541-4.181,3.541-6.921v-64
				C512.001,379.121,510.687,376.552,508.46,374.939z M393.14,419.825c0.094,0.546,0.188,1.092,0.307,1.63
				c0.068,0.273,0.094,0.563,0.162,0.836l-35.208,11.733v-40.32l35.208,11.733c-0.068,0.282-0.094,0.563-0.162,0.845
				c-0.119,0.538-0.213,1.075-0.307,1.621c-0.358,1.971-0.606,3.951-0.606,5.965C392.534,415.874,392.782,417.853,393.14,419.825z
				 M406.512,482.135l11.733-35.217c0.265,0.068,0.538,0.094,0.802,0.154c0.563,0.128,1.135,0.23,1.715,0.333
				c1.877,0.333,3.78,0.563,5.683,0.572c0.077,0,0.145,0.026,0.222,0.026c0.077,0,0.145-0.026,0.222-0.026
				c1.903-0.009,3.806-0.239,5.683-0.572c0.58-0.102,1.152-0.205,1.715-0.333c0.264-0.06,0.538-0.085,0.802-0.154l11.733,35.217
				H406.512z M435.09,380.819c-0.264-0.068-0.538-0.094-0.811-0.162c-0.555-0.128-1.109-0.222-1.673-0.324
				c-1.963-0.358-3.942-0.597-5.939-0.597c-1.997,0-3.977,0.239-5.939,0.597c-0.563,0.102-1.118,0.196-1.673,0.324
				c-0.273,0.068-0.546,0.094-0.811,0.162l-11.733-35.217h40.311L435.09,380.819z M494.934,434.024l-35.217-11.733
				c0.068-0.265,0.094-0.538,0.154-0.811c0.128-0.555,0.23-1.109,0.333-1.681c0.35-1.954,0.597-3.934,0.597-5.931
				c0-2.005-0.247-3.977-0.597-5.939c-0.102-0.563-0.205-1.126-0.333-1.681c-0.06-0.265-0.085-0.538-0.154-0.811l35.217-11.733
				V434.024z"/>
			<path d="M401.068,323.532V63.999h-42.667c-4.71,0-8.533,3.814-8.533,8.533v196.267c0,2.27,0.896,4.429,2.5,6.033L401.068,323.532
				z"/>
			<path d="M503.468,268.799V72.532c0-4.719-3.814-8.533-8.533-8.533h-42.667v259.533l48.7-48.7
				C502.572,273.236,503.468,271.069,503.468,268.799z"/>
		</g>
	</g>
</g>
</svg>